HIERARCHY
ROOT Hips
{
    OFFSET 0.000000 0.000000 0.000000
    CHANNELS 6 Xposition Yposition Zposition Zrotation Xrotation Yrotation
        JOINT Chest
        {
            OFFSET -0.000000 26.747992 -0.000000
            CHANNELS 3 Zrotation Xrotation Yrotation
            JOINT Neck
            {
                OFFSET -0.000000 19.168715 0.000000
                CHANNELS 3 Zrotation Xrotation Yrotation
                JOINT Head
                {
                    OFFSET -0.000000 10.083335 0.000000
                    CHANNELS 3 Zrotation Xrotation Yrotation
                    End Site
                    {
                        OFFSET -0.000000 15.583343 0.000000
                    }
                }
            }
            JOINT LeftCollar
            {
                OFFSET -0.000000 19.168715 0.000000
                CHANNELS 3 Zrotation Xrotation Yrotation
                JOINT LeftShoulder
                {
                    OFFSET 19.500000 -0.000000 0.000000
                    CHANNELS 3 Zrotation Xrotation Yrotation
                    JOINT LeftElbow
                    {
                        OFFSET 19.022890 0.000000 0.000000
                        CHANNELS 3 Zrotation Xrotation Yrotation
                        JOINT LeftWrist
                        {
                            OFFSET 24.768559 0.000000 0.000000
                            CHANNELS 3 Zrotation Xrotation Yrotation
                            End Site
                            {
                                OFFSET 0.000000 -13.750003 0.000000
                            }
                        }
                    }
                }
            }
            JOINT RightCollar
            {
                OFFSET -0.000000 19.168715 0.000000
                CHANNELS 3 Zrotation Xrotation Yrotation
                JOINT RightShoulder
                {
                    OFFSET -19.500000 0.000000 0.000000
                    CHANNELS 3 Zrotation Xrotation Yrotation
                    JOINT RightElbow
                    {
                        OFFSET -19.022890 0.000000 0.000000
                        CHANNELS 3 Zrotation Xrotation Yrotation
                        JOINT RightWrist
                        {
                            OFFSET -24.768559 0.000000 0.000000
                            CHANNELS 3 Zrotation Xrotation Yrotation
                            End Site
                            {
                                OFFSET -0.000000 -13.750003 0.000000
                            }
                        }
                    }
                }
            }
        }
    JOINT LeftHip
    {
        OFFSET 11.000002 0.000000 0.000000
        CHANNELS 3 Zrotation Xrotation Yrotation
        JOINT LeftKnee
        {
            OFFSET -0.000000 -39.837296 0.000000
            CHANNELS 3 Zrotation Xrotation Yrotation
            JOINT LeftAnkle
            {
                OFFSET -0.000000 -38.248398 0.000000
                CHANNELS 3 Zrotation Xrotation Yrotation
                End Site
                {
                    OFFSET -0.000000 -4.583334 15.583343
                }
            }
        }
    }
    JOINT RightHip
    {
        OFFSET -11.000002 0.000000 0.000000
        CHANNELS 3 Zrotation Xrotation Yrotation
        JOINT RightKnee
        {
            OFFSET -0.000000 -39.837296 0.000000
            CHANNELS 3 Zrotation Xrotation Yrotation
            JOINT RightAnkle
            {
                OFFSET -0.000000 -38.248398 0.000000
                CHANNELS 3 Zrotation Xrotation Yrotation
                End Site
                {
                    OFFSET -0.000000 -4.583334 15.583343
                }
            }
        }
    }
}
MOTION
Frames:    5
Frame Time:    0.010000
-70.740616    86.188698    -35.085838    -2.477812    -2.973541    33.708397    2.786107    -6.423800    -0.846485    2.110771    5.525408    1.068058    3.934617    6.908240    0.930166    -20.680195    -4.166625    22.449812    -19.358421    44.805622    -27.339468    -13.540551    13.670177    -90.515045    145.906281    0.477844    53.407116    18.808933    -0.710049    -4.185591    37.958195    20.067762    3.427220    27.644304    26.290783    87.016243    -72.325554    3.762262    22.821339    4.986485    9.741769    1.849242    0.874330    4.734777    27.221291    -4.887591    -9.738601    0.467545    -2.786396    -3.559518    -4.460558    -1.497590    2.727171    -5.583663    8.423604    1.022101    7.133585    
-70.725021    86.189812    -35.066216    -2.487281    -2.972382    33.700871    2.762479    -6.405394    -0.842727    2.131219    5.506257    1.089049    3.885043    6.797005    0.960241    -20.695183    -4.142530    22.462025    -19.266870    44.781055    -27.391359    -13.581097    13.689127    -90.513016    145.942551    0.582862    53.417671    18.824394    -0.691344    -4.178118    37.966946    20.042543    3.407385    27.710299    26.350185    86.955055    -72.394257    3.750829    22.823101    5.003098    9.735494    1.818437    0.847768    4.771212    27.224140    -4.889968    -9.758450    0.506394    -2.776990    -3.560339    -4.449316    -1.503805    2.750482    -5.601110    9.071387    1.198071    6.928452    
-70.709785    86.190750    -35.046715    -2.497005    -2.970241    33.690044    2.741618    -6.389820    -0.837896    2.149492    5.490326    1.116174    3.830790    6.679239    0.994584    -20.691360    -4.162361    22.484488    -19.187149    44.802471    -27.468559    -13.527901    13.616151    -90.507599    145.803131    0.602708    53.339081    18.834370    -0.664020    -4.164269    37.973492    20.031326    3.405072    27.742767    26.370270    86.929672    -72.408508    3.775175    22.853834    5.017218    9.731849    1.790626    0.824373    4.801807    27.232073    -4.894074    -9.775486    0.541182    -2.767859    -3.564258    -4.443532    -1.508605    2.774155    -5.610301    9.542123    1.317486    6.782093    
-70.694855    86.191574    -35.027306    -2.506912    -2.966929    33.676678    2.724494    -6.378500    -0.832222    2.168048    5.482156    1.140157    3.773700    6.552580    1.027092    -20.693817    -4.163377    22.498985    -19.102816    44.813309    -27.518198    -13.487105    13.625795    -90.508644    145.798355    0.711568    53.366131    18.837032    -0.664214    -4.156576    37.984058    20.057430    3.399406    27.703161    26.348211    86.959404    -72.368851    3.819563    22.872335    5.028188    9.730106    1.766451    0.805505    4.827274    27.245207    -4.900280    -9.789702    0.570487    -2.759403    -3.571133    -4.442216    -1.511904    2.798614    -5.611638    9.835379    1.382486    6.694590    
-70.680222    86.192413    -35.008015    -2.516807    -2.962406    33.661758    2.711786    -6.370076    -0.826231    2.178973    5.475136    1.169524    3.717302    6.424915    1.063728    -20.696548    -4.164504    22.518644    -19.024492    44.820992    -27.577669    -13.522400    13.621450    -90.480759    145.853394    0.785303    53.402008    18.830893    -0.698123    -4.142815    37.999523    20.121290    3.378306    27.669680    26.310545    86.991005    -72.369499    3.822143    22.828999    5.035678    9.729472    1.745112    0.791837    4.848600    27.263956    -4.908739    -9.801158    0.593585    -2.751868    -3.580596    -4.444469    -1.514065    2.824270    -5.605289    9.969225    1.399609    6.659300    
